<svg version="1.1" xmlns="http://www.w3.org/2000/svg" width="32" height="32"
    viewBox="0 0 32 32">
    <rect x="0" y="0" width="100%" height="100%" fill="white" stroke="black" stroke-width="1" />

    <line x1="8" y1="4" x2="24" y2="4" stroke="#ED4795" stroke-width="1" />
    <line x1="7" y1="5" x2="25" y2="5" stroke="#ED4795" stroke-width="1" />
    <line x1="6" y1="6" x2="26" y2="6" stroke="#ED4795" stroke-width="1" />
    <line x1="5" y1="7" x2="27" y2="7" stroke="#ED4795" stroke-width="1" />

    <line x1="4" y1="8" x2="11" y2="8" stroke="#ED4795" stroke-width="1" />
    <line x1="21" y1="8" x2="28" y2="8" stroke="#ED4795" stroke-width="1" />

    <line x1="4" y1="9" x2="10" y2="9" stroke="#ED4795" stroke-width="1" />
    <line x1="22" y1="9" x2="28" y2="9" stroke="#ED4795" stroke-width="1" />

    <line x1="4" y1="10" x2="9" y2="10" stroke="#ED4795" stroke-width="1" />
    <line x1="23" y1="10" x2="28" y2="10" stroke="#ED4795" stroke-width="1" />

    <line x1="4" y1="11" x2="8" y2="11" stroke="#ED4795" stroke-width="1" />
    <line x1="24" y1="11" x2="28" y2="11" stroke="#ED4795" stroke-width="1" />

    <line x1="4" y1="12" x2="8" y2="12" stroke="#ED4795" stroke-width="1" />
    <line x1="4" y1="13" x2="8" y2="13" stroke="#ED4795" stroke-width="1" />
    <line x1="4" y1="14" x2="8" y2="14" stroke="#ED4795" stroke-width="1" />
    <line x1="4" y1="15" x2="8" y2="15" stroke="#ED4795" stroke-width="1" />
    <line x1="4" y1="16" x2="8" y2="16" stroke="#ED4795" stroke-width="1" />
    <line x1="4" y1="17" x2="8" y2="17" stroke="#ED4795" stroke-width="1" />
    <line x1="4" y1="18" x2="8" y2="18" stroke="#ED4795" stroke-width="1" />
    <line x1="4" y1="19" x2="8" y2="19" stroke="#ED4795" stroke-width="1" />
    <line x1="4" y1="20" x2="8" y2="20" stroke="#ED4795" stroke-width="1" />

    <line x1="4" y1="21" x2="8" y2="21" stroke="#ED4795" stroke-width="1" />
    <line x1="24" y1="21" x2="28" y2="21" stroke="#ED4795" stroke-width="1" />

    <line x1="4" y1="22" x2="9" y2="22" stroke="#ED4795" stroke-width="1" />
    <line x1="23" y1="22" x2="28" y2="22" stroke="#ED4795" stroke-width="1" />

    <line x1="4" y1="23" x2="10" y2="23" stroke="#ED4795" stroke-width="1" />
    <line x1="22" y1="23" x2="28" y2="23" stroke="#ED4795" stroke-width="1" />

    <line x1="4" y1="24" x2="11" y2="24" stroke="#ED4795" stroke-width="1" />
    <line x1="21" y1="24" x2="28" y2="24" stroke="#ED4795" stroke-width="1" />

    <line x1="5" y1="25" x2="27" y2="25" stroke="#ED4795" stroke-width="1" />
    <line x1="6" y1="26" x2="26" y2="26" stroke="#ED4795" stroke-width="1" />
    <line x1="7" y1="27" x2="25" y2="27" stroke="#ED4795" stroke-width="1" />
    <line x1="8" y1="28" x2="24" y2="28" stroke="#ED4795" stroke-width="1" />

    <line x1="12" y1="12" x2="15" y2="12" stroke="#86898C" stroke-width="1" />
    <line x1="17" y1="12" x2="20" y2="12" stroke="#86898C" stroke-width="1" />
    <line x1="11" y1="13" x2="21" y2="13" stroke="#86898C" stroke-width="1" />
    <line x1="10" y1="14" x2="22" y2="14" stroke="#86898C" stroke-width="1" />
    <line x1="10" y1="15" x2="22" y2="15" stroke="#86898C" stroke-width="1" />
    <line x1="10" y1="16" x2="22" y2="16" stroke="#86898C" stroke-width="1" />
    <line x1="11" y1="17" x2="21" y2="17" stroke="#86898C" stroke-width="1" />
    <line x1="12" y1="18" x2="20" y2="18" stroke="#86898C" stroke-width="1" />
    <line x1="13" y1="19" x2="19" y2="19" stroke="#86898C" stroke-width="1" />
    <line x1="14" y1="20" x2="18" y2="20" stroke="#86898C" stroke-width="1" />
    <line x1="15" y1="21" x2="17" y2="21" stroke="#86898C" stroke-width="1" />
</svg>